<?xml version="1.0" encoding="UTF-8"?><svg xmlns="http://www.w3.org/2000/svg" viewBox="0 0 520 683"><g id="a"/><g id="b"><g id="c"><rect x="31" y="31" width="489" height="652" fill="#10162f"/><rect x="1" y="1" width="489" height="652" fill="#fff" stroke="#10162f" stroke-width="2"/><path d="M428.9,404.1c0,10.4-12.9,18.6-15.9,27.9-3.2,9.7,2.3,23.9-3.5,32-5.9,8.1-21.2,7.3-29.3,13.2-8.1,5.9-11.9,20.6-21.6,23.8-9.3,3-21.1-6.6-31.5-6.6s-22.1,9.6-31.5,6.6c-9.7-3.2-13.5-17.9-21.6-23.8-8.2-5.9-23.4-5.1-29.3-13.2s-.4-22.3-3.5-32c-3.1-9.4-15.9-17.6-15.9-27.9s12.9-18.6,15.9-27.9c3.1-9.7-2.4-23.9,3.5-32s21.2-7.3,29.3-13.2c8.1-5.9,11.9-20.7,21.6-23.8,9.4-3,21.1,6.6,31.5,6.6s22.1-9.6,31.5-6.6c9.7,3.1,13.5,17.9,21.6,23.8,8.2,5.9,23.4,5.1,29.3,13.2s.4,22.3,3.5,32c3,9.4,15.9,17.6,15.9,27.9Z" fill="#ffd300" stroke="#10162f" stroke-miterlimit="10"/><path d="M380.1,477.3c-8.1,5.9-11.9,20.6-21.6,23.8-9.3,3-21.1-6.6-31.5-6.6s-22.1,9.6-31.5,6.6c-9.7-3.2-13.5-17.9-21.6-23.8-2.2-1.6-5-2.8-8-3.7v118.3l61.1-40.7,61.1,40.7v-118.3c-3,.9-5.8,2-8,3.7Z" fill="#10162f" stroke="#10162f" stroke-miterlimit="10" stroke-width="2"/><g><rect x="82.5" y="82.5" width="326" height="81.5" fill="#fff"/><path d="M409.5,165H81.5V81.5H409.5v83.5Zm-326-2H407.5V83.5H83.5v79.5Z" fill="#10162f"/></g><rect x="82.5" y="224.1" width="326" height="2" fill="#10162f"/><rect x="82.5" y="285.2" width="81.5" height="2" fill="#10162f"/><rect x="82.5" y="346.4" width="81.5" height="2" fill="#10162f"/><rect x="82.5" y="407.5" width="81.5" height="2" fill="#10162f"/><rect x="82.5" y="468.6" width="81.5" height="2" fill="#10162f"/><rect x="82.5" y="529.8" width="81.5" height="2" fill="#10162f"/></g></g></svg>