<?xml version="1.0" encoding="UTF-8"?><svg id="uuid-fa5cc471-d751-4333-9bf5-52692b212bc7" xmlns="http://www.w3.org/2000/svg" viewBox="0 0 24 24"><g id="uuid-8a5094a7-ec4b-4d11-bb36-1d05de1e13a9"><g><path d="M6.75,24c-.41,0-.75-.34-.75-.75s.34-.75,.75-.75h1.61l.5-3H3.75c-2.07,0-3.75-1.68-3.75-3.75V3.75C0,1.68,1.68,0,3.75,0H20.25c2.07,0,3.75,1.68,3.75,3.75V15.75c0,2.07-1.68,3.75-3.75,3.75h-5.11l.5,3h1.61c.41,0,.75,.34,.75,.75s-.34,.75-.75,.75H6.75Zm7.36-1.5l-.5-3h-3.23l-.5,3h4.23ZM3.75,1.5c-1.24,0-2.25,1.01-2.25,2.25V15.75c0,1.24,1.01,2.25,2.25,2.25H20.25c1.24,0,2.25-1.01,2.25-2.25V3.75c0-1.24-1.01-2.25-2.25-2.25H3.75Z" fill="#3a11e5"/><path d="M5.25,9c-.41,0-.75-.34-.75-.75v-3c0-.41,.34-.75,.75-.75s.75,.34,.75,.75v3c0,.41-.34,.75-.75,.75Z" fill="#3a11e5"/><path d="M14.25,9c-.41,0-.75-.34-.75-.75v-3c0-.41,.34-.75,.75-.75s.75,.34,.75,.75v3c0,.41-.34,.75-.75,.75Z" fill="#3a11e5"/><path d="M18.75,9c-.41,0-.75-.34-.75-.75v-3c0-.41,.34-.75,.75-.75s.75,.34,.75,.75v3c0,.41-.34,.75-.75,.75Z" fill="#3a11e5"/><path d="M18.75,15c-.41,0-.75-.34-.75-.75v-3c0-.41,.34-.75,.75-.75s.75,.34,.75,.75v3c0,.41-.34,.75-.75,.75Z" fill="#3a11e5"/><path d="M9.75,15c-.41,0-.75-.34-.75-.75v-3c0-.41,.34-.75,.75-.75s.75,.34,.75,.75v3c0,.41-.34,.75-.75,.75Z" fill="#3a11e5"/><path d="M5.25,15c-.41,0-.75-.34-.75-.75v-3c0-.41,.34-.75,.75-.75s.75,.34,.75,.75v3c0,.41-.34,.75-.75,.75Z" fill="#3a11e5"/><path d="M9.75,9c-1.24,0-2.25-1.01-2.25-2.25s1.01-2.25,2.25-2.25,2.25,1.01,2.25,2.25-1.01,2.25-2.25,2.25Zm0-3c-.41,0-.75,.34-.75,.75s.34,.75,.75,.75,.75-.34,.75-.75-.34-.75-.75-.75Z" fill="#3a11e5"/><path d="M14.25,15c-1.24,0-2.25-1.01-2.25-2.25s1.01-2.25,2.25-2.25,2.25,1.01,2.25,2.25-1.01,2.25-2.25,2.25Zm0-3c-.41,0-.75,.34-.75,.75s.34,.75,.75,.75,.75-.34,.75-.75-.34-.75-.75-.75Z" fill="#3a11e5"/></g></g></svg>