<?xml version="1.0" encoding="utf-8"?>
<!-- Generator: Adobe Illustrator 26.0.1, SVG Export Plug-In . SVG Version: 6.00 Build 0)  -->
<svg version="1.1" id="Layer_1" xmlns="http://www.w3.org/2000/svg" xmlns:xlink="http://www.w3.org/1999/xlink" x="0px" y="0px"
	 viewBox="0 0 160 160" style="enable-background:new 0 0 160 160;" xml:space="preserve">
<style type="text/css">
	.st0{fill-rule:evenodd;clip-rule:evenodd;fill:#FFD300;}
	.st1{fill:#10162F;}
	.st2{clip-path:url(#SVGID_00000148634461079573774370000016952172548890807685_);}
	.st3{fill:none;}
	.st4{fill:#FFFFFF;}
	.st5{fill:#FFD300;}
</style>
<path class="st0" d="M128,98.8l-19.6-10.9l0.3,22.4l7.4-4.4l3.7,6.1l4.4-2.7l-3.7-6.2L128,98.8z"/>
<g>
	<path class="st1" d="M108.4,87.9l0.5-0.9l-1.5-0.8v1.7L108.4,87.9z M128,98.8l0.5,0.9l1.5-0.9l-1.5-0.8L128,98.8z M108.8,110.3h-1
		v1.7l1.5-0.9L108.8,110.3z M116.2,105.9l0.9-0.5l-0.5-0.9l-0.9,0.5L116.2,105.9z M119.8,112l-0.9,0.5l0.5,0.9l0.9-0.5L119.8,112z
		 M124.2,109.3l0.5,0.9l0.9-0.5l-0.5-0.9L124.2,109.3z M120.6,103.2l-0.5-0.9l-0.9,0.5l0.5,0.8L120.6,103.2z M107.9,88.8l19.6,10.9
		l1-1.8L108.9,87L107.9,88.8z M109.7,110.3l-0.3-22.4h-2l0.3,22.4H109.7z M115.6,105l-7.4,4.4l1,1.7l7.4-4.4L115.6,105z
		 M120.6,111.5l-3.6-6.2l-1.7,1l3.7,6.2L120.6,111.5z M123.7,108.5l-4.4,2.7l1,1.7l4.4-2.7L123.7,108.5z M119.7,103.7l3.7,6.2l1.7-1
		l-3.7-6.2L119.7,103.7z M127.4,97.9l-7.4,4.4l1,1.7l7.4-4.4L127.4,97.9z"/>
</g>
<g>
	<defs>
		<rect id="SVGID_1_" x="6.9" y="51.7" width="47.7" height="47.7"/>
	</defs>
	<clipPath id="SVGID_00000036966807651240338550000014702402346400204989_">
		<use xlink:href="#SVGID_1_"  style="overflow:visible;"/>
	</clipPath>
	<g style="clip-path:url(#SVGID_00000036966807651240338550000014702402346400204989_);">
		<rect x="53.2" y="48.3" class="st3" width="4" height="4"/>
		<rect x="53.2" y="48.3" class="st1" width="1" height="1"/>
		<rect x="55.2" y="50.3" class="st1" width="1" height="1"/>
		<rect x="53.2" y="52.3" class="st3" width="4" height="4"/>
		<rect x="53.2" y="52.3" class="st1" width="1" height="1"/>
		<rect x="55.2" y="54.3" class="st1" width="1" height="1"/>
		<rect x="53.2" y="56.3" class="st3" width="4" height="4"/>
		<rect x="53.2" y="56.3" class="st1" width="1" height="1"/>
		<rect x="55.2" y="58.3" class="st1" width="1" height="1"/>
		<rect x="53.2" y="60.3" class="st3" width="4" height="4"/>
		<rect x="53.2" y="60.3" class="st1" width="1" height="1"/>
		<rect x="55.2" y="62.3" class="st1" width="1" height="1"/>
		<rect x="53.2" y="64.3" class="st3" width="4" height="4"/>
		<rect x="53.2" y="64.3" class="st1" width="1" height="1"/>
		<rect x="55.2" y="66.3" class="st1" width="1" height="1"/>
		<rect x="53.2" y="68.3" class="st3" width="4" height="4"/>
		<rect x="53.2" y="68.3" class="st1" width="1" height="1"/>
		<rect x="55.2" y="70.3" class="st1" width="1" height="1"/>
		<rect x="53.2" y="72.3" class="st3" width="4" height="4"/>
		<rect x="53.2" y="72.3" class="st1" width="1" height="1"/>
		<rect x="55.2" y="74.3" class="st1" width="1" height="1"/>
		<rect x="53.2" y="76.3" class="st3" width="4" height="4"/>
		<rect x="53.2" y="76.3" class="st1" width="1" height="1"/>
		<rect x="55.2" y="78.3" class="st1" width="1" height="1"/>
		<rect x="53.2" y="80.3" class="st3" width="4" height="4"/>
		<rect x="53.2" y="80.3" class="st1" width="1" height="1"/>
		<rect x="55.2" y="82.3" class="st1" width="1" height="1"/>
		<rect x="53.2" y="84.3" class="st3" width="4" height="4"/>
		<rect x="53.2" y="84.3" class="st1" width="1" height="1"/>
		<rect x="55.2" y="86.3" class="st1" width="1" height="1"/>
		<rect x="53.2" y="88.3" class="st3" width="4" height="4"/>
		<rect x="53.2" y="88.3" class="st1" width="1" height="1"/>
		<rect x="55.2" y="90.3" class="st1" width="1" height="1"/>
		<rect x="53.2" y="92.3" class="st3" width="4" height="4"/>
		<rect x="53.2" y="92.3" class="st1" width="1" height="1"/>
		<rect x="55.2" y="94.3" class="st1" width="1" height="1"/>
		<rect x="53.2" y="96.3" class="st3" width="4" height="4"/>
		<rect x="53.2" y="96.3" class="st1" width="1" height="1"/>
		<rect x="55.2" y="98.3" class="st1" width="1" height="1"/>
		<rect x="49.2" y="48.3" class="st3" width="4" height="4"/>
		<rect x="49.2" y="48.3" class="st1" width="1" height="1"/>
		<rect x="51.2" y="50.3" class="st1" width="1" height="1"/>
		<rect x="49.2" y="52.3" class="st3" width="4" height="4"/>
		<rect x="49.2" y="52.3" class="st1" width="1" height="1"/>
		<rect x="51.2" y="54.3" class="st1" width="1" height="1"/>
		<rect x="49.2" y="56.3" class="st3" width="4" height="4"/>
		<rect x="49.2" y="56.3" class="st1" width="1" height="1"/>
		<rect x="51.2" y="58.3" class="st1" width="1" height="1"/>
		<rect x="49.2" y="60.3" class="st3" width="4" height="4"/>
		<rect x="49.2" y="60.3" class="st1" width="1" height="1"/>
		<rect x="51.2" y="62.3" class="st1" width="1" height="1"/>
		<rect x="49.2" y="64.3" class="st3" width="4" height="4"/>
		<rect x="49.2" y="64.3" class="st1" width="1" height="1"/>
		<rect x="51.2" y="66.3" class="st1" width="1" height="1"/>
		<rect x="49.2" y="68.3" class="st3" width="4" height="4"/>
		<rect x="49.2" y="68.3" class="st1" width="1" height="1"/>
		<rect x="51.2" y="70.3" class="st1" width="1" height="1"/>
		<rect x="49.2" y="72.3" class="st3" width="4" height="4"/>
		<rect x="49.2" y="72.3" class="st1" width="1" height="1"/>
		<rect x="51.2" y="74.3" class="st1" width="1" height="1"/>
		<rect x="49.2" y="76.3" class="st3" width="4" height="4"/>
		<rect x="49.2" y="76.3" class="st1" width="1" height="1"/>
		<rect x="51.2" y="78.3" class="st1" width="1" height="1"/>
		<rect x="49.2" y="80.3" class="st3" width="4" height="4"/>
		<rect x="49.2" y="80.3" class="st1" width="1" height="1"/>
		<rect x="51.2" y="82.3" class="st1" width="1" height="1"/>
		<rect x="49.2" y="84.3" class="st3" width="4" height="4"/>
		<rect x="49.2" y="84.3" class="st1" width="1" height="1"/>
		<rect x="51.2" y="86.3" class="st1" width="1" height="1"/>
		<rect x="49.2" y="88.3" class="st3" width="4" height="4"/>
		<rect x="49.2" y="88.3" class="st1" width="1" height="1"/>
		<rect x="51.2" y="90.3" class="st1" width="1" height="1"/>
		<rect x="49.2" y="92.3" class="st3" width="4" height="4"/>
		<rect x="49.2" y="92.3" class="st1" width="1" height="1"/>
		<rect x="51.2" y="94.3" class="st1" width="1" height="1"/>
		<rect x="49.2" y="96.3" class="st3" width="4" height="4"/>
		<rect x="49.2" y="96.3" class="st1" width="1" height="1"/>
		<rect x="51.2" y="98.3" class="st1" width="1" height="1"/>
		<rect x="45.2" y="48.3" class="st3" width="4" height="4"/>
		<rect x="45.2" y="48.3" class="st1" width="1" height="1"/>
		<rect x="47.2" y="50.3" class="st1" width="1" height="1"/>
		<rect x="45.2" y="52.3" class="st3" width="4" height="4"/>
		<rect x="45.2" y="52.3" class="st1" width="1" height="1"/>
		<rect x="47.2" y="54.3" class="st1" width="1" height="1"/>
		<rect x="45.2" y="56.3" class="st3" width="4" height="4"/>
		<rect x="45.2" y="56.3" class="st1" width="1" height="1"/>
		<rect x="47.2" y="58.3" class="st1" width="1" height="1"/>
		<rect x="45.2" y="60.3" class="st3" width="4" height="4"/>
		<rect x="45.2" y="60.3" class="st1" width="1" height="1"/>
		<rect x="47.2" y="62.3" class="st1" width="1" height="1"/>
		<rect x="45.2" y="64.3" class="st3" width="4" height="4"/>
		<rect x="45.2" y="64.3" class="st1" width="1" height="1"/>
		<rect x="47.2" y="66.3" class="st1" width="1" height="1"/>
		<rect x="45.2" y="68.3" class="st3" width="4" height="4"/>
		<rect x="45.2" y="68.3" class="st1" width="1" height="1"/>
		<rect x="47.2" y="70.3" class="st1" width="1" height="1"/>
		<rect x="45.2" y="72.3" class="st3" width="4" height="4"/>
		<rect x="45.2" y="72.3" class="st1" width="1" height="1"/>
		<rect x="47.2" y="74.3" class="st1" width="1" height="1"/>
		<rect x="45.2" y="76.3" class="st3" width="4" height="4"/>
		<rect x="45.2" y="76.3" class="st1" width="1" height="1"/>
		<rect x="47.2" y="78.3" class="st1" width="1" height="1"/>
		<rect x="45.2" y="80.3" class="st3" width="4" height="4"/>
		<rect x="45.2" y="80.3" class="st1" width="1" height="1"/>
		<rect x="47.2" y="82.3" class="st1" width="1" height="1"/>
		<rect x="45.2" y="84.3" class="st3" width="4" height="4"/>
		<rect x="45.2" y="84.3" class="st1" width="1" height="1"/>
		<rect x="47.2" y="86.3" class="st1" width="1" height="1"/>
		<rect x="45.2" y="88.3" class="st3" width="4" height="4"/>
		<rect x="45.2" y="88.3" class="st1" width="1" height="1"/>
		<rect x="47.2" y="90.3" class="st1" width="1" height="1"/>
		<rect x="45.2" y="92.3" class="st3" width="4" height="4"/>
		<rect x="45.2" y="92.3" class="st1" width="1" height="1"/>
		<rect x="47.2" y="94.3" class="st1" width="1" height="1"/>
		<rect x="45.2" y="96.3" class="st3" width="4" height="4"/>
		<rect x="45.2" y="96.3" class="st1" width="1" height="1"/>
		<rect x="47.2" y="98.3" class="st1" width="1" height="1"/>
		<rect x="41.2" y="48.3" class="st3" width="4" height="4"/>
		<rect x="41.2" y="48.3" class="st1" width="1" height="1"/>
		<rect x="43.2" y="50.3" class="st1" width="1" height="1"/>
		<rect x="41.2" y="52.3" class="st3" width="4" height="4"/>
		<rect x="41.2" y="52.3" class="st1" width="1" height="1"/>
		<rect x="43.2" y="54.3" class="st1" width="1" height="1"/>
		<rect x="41.2" y="56.3" class="st3" width="4" height="4"/>
		<rect x="41.2" y="56.3" class="st1" width="1" height="1"/>
		<rect x="43.2" y="58.3" class="st1" width="1" height="1"/>
		<rect x="41.2" y="60.3" class="st3" width="4" height="4"/>
		<rect x="41.2" y="60.3" class="st1" width="1" height="1"/>
		<rect x="43.2" y="62.3" class="st1" width="1" height="1"/>
		<rect x="41.2" y="64.3" class="st3" width="4" height="4"/>
		<rect x="41.2" y="64.3" class="st1" width="1" height="1"/>
		<rect x="43.2" y="66.3" class="st1" width="1" height="1"/>
		<rect x="41.2" y="68.3" class="st3" width="4" height="4"/>
		<rect x="41.2" y="68.3" class="st1" width="1" height="1"/>
		<rect x="43.2" y="70.3" class="st1" width="1" height="1"/>
		<rect x="41.2" y="72.3" class="st3" width="4" height="4"/>
		<rect x="41.2" y="72.3" class="st1" width="1" height="1"/>
		<rect x="43.2" y="74.3" class="st1" width="1" height="1"/>
		<rect x="41.2" y="76.3" class="st3" width="4" height="4"/>
		<rect x="41.2" y="76.3" class="st1" width="1" height="1"/>
		<rect x="43.2" y="78.3" class="st1" width="1" height="1"/>
		<rect x="41.2" y="80.3" class="st3" width="4" height="4"/>
		<rect x="41.2" y="80.3" class="st1" width="1" height="1"/>
		<rect x="43.2" y="82.3" class="st1" width="1" height="1"/>
		<rect x="41.2" y="84.3" class="st3" width="4" height="4"/>
		<rect x="41.2" y="84.3" class="st1" width="1" height="1"/>
		<rect x="43.2" y="86.3" class="st1" width="1" height="1"/>
		<rect x="41.2" y="88.3" class="st3" width="4" height="4"/>
		<rect x="41.2" y="88.3" class="st1" width="1" height="1"/>
		<rect x="43.2" y="90.3" class="st1" width="1" height="1"/>
		<rect x="41.2" y="92.3" class="st3" width="4" height="4"/>
		<rect x="41.2" y="92.3" class="st1" width="1" height="1"/>
		<rect x="43.2" y="94.3" class="st1" width="1" height="1"/>
		<rect x="41.2" y="96.3" class="st3" width="4" height="4"/>
		<rect x="41.2" y="96.3" class="st1" width="1" height="1"/>
		<rect x="43.2" y="98.3" class="st1" width="1" height="1"/>
		<rect x="37.2" y="48.3" class="st3" width="4" height="4"/>
		<rect x="37.2" y="48.3" class="st1" width="1" height="1"/>
		<rect x="39.2" y="50.3" class="st1" width="1" height="1"/>
		<rect x="37.2" y="52.3" class="st3" width="4" height="4"/>
		<rect x="37.2" y="52.3" class="st1" width="1" height="1"/>
		<rect x="39.2" y="54.3" class="st1" width="1" height="1"/>
		<rect x="37.2" y="56.3" class="st3" width="4" height="4"/>
		<rect x="37.2" y="56.3" class="st1" width="1" height="1"/>
		<rect x="39.2" y="58.3" class="st1" width="1" height="1"/>
		<rect x="37.2" y="60.3" class="st3" width="4" height="4"/>
		<rect x="37.2" y="60.3" class="st1" width="1" height="1"/>
		<rect x="39.2" y="62.3" class="st1" width="1" height="1"/>
		<rect x="37.2" y="64.3" class="st3" width="4" height="4"/>
		<rect x="37.2" y="64.3" class="st1" width="1" height="1"/>
		<rect x="39.2" y="66.3" class="st1" width="1" height="1"/>
		<rect x="37.2" y="68.3" class="st3" width="4" height="4"/>
		<rect x="37.2" y="68.3" class="st1" width="1" height="1"/>
		<rect x="39.2" y="70.3" class="st1" width="1" height="1"/>
		<rect x="37.2" y="72.3" class="st3" width="4" height="4"/>
		<rect x="37.2" y="72.3" class="st1" width="1" height="1"/>
		<rect x="39.2" y="74.3" class="st1" width="1" height="1"/>
		<rect x="37.2" y="76.3" class="st3" width="4" height="4"/>
		<rect x="37.2" y="76.3" class="st1" width="1" height="1"/>
		<rect x="39.2" y="78.3" class="st1" width="1" height="1"/>
		<rect x="37.2" y="80.3" class="st3" width="4" height="4"/>
		<rect x="37.2" y="80.3" class="st1" width="1" height="1"/>
		<rect x="39.2" y="82.3" class="st1" width="1" height="1"/>
		<rect x="37.2" y="84.3" class="st3" width="4" height="4"/>
		<rect x="37.2" y="84.3" class="st1" width="1" height="1"/>
		<rect x="39.2" y="86.3" class="st1" width="1" height="1"/>
		<rect x="37.2" y="88.3" class="st3" width="4" height="4"/>
		<rect x="37.2" y="88.3" class="st1" width="1" height="1"/>
		<rect x="39.2" y="90.3" class="st1" width="1" height="1"/>
		<rect x="37.2" y="92.3" class="st3" width="4" height="4"/>
		<rect x="37.2" y="92.3" class="st1" width="1" height="1"/>
		<rect x="39.2" y="94.3" class="st1" width="1" height="1"/>
		<rect x="37.2" y="96.3" class="st3" width="4" height="4"/>
		<rect x="37.2" y="96.3" class="st1" width="1" height="1"/>
		<rect x="39.2" y="98.3" class="st1" width="1" height="1"/>
		<rect x="33.2" y="48.3" class="st3" width="4" height="4"/>
		<rect x="33.2" y="48.3" class="st1" width="1" height="1"/>
		<rect x="35.2" y="50.3" class="st1" width="1" height="1"/>
		<rect x="33.2" y="52.3" class="st3" width="4" height="4"/>
		<rect x="33.2" y="52.3" class="st1" width="1" height="1"/>
		<rect x="35.2" y="54.3" class="st1" width="1" height="1"/>
		<rect x="33.2" y="56.3" class="st3" width="4" height="4"/>
		<rect x="33.2" y="56.3" class="st1" width="1" height="1"/>
		<rect x="35.2" y="58.3" class="st1" width="1" height="1"/>
		<rect x="33.2" y="60.3" class="st3" width="4" height="4"/>
		<rect x="33.2" y="60.3" class="st1" width="1" height="1"/>
		<rect x="35.2" y="62.3" class="st1" width="1" height="1"/>
		<rect x="33.2" y="64.3" class="st3" width="4" height="4"/>
		<rect x="33.2" y="64.3" class="st1" width="1" height="1"/>
		<rect x="35.2" y="66.3" class="st1" width="1" height="1"/>
		<rect x="33.2" y="68.3" class="st3" width="4" height="4"/>
		<rect x="33.2" y="68.3" class="st1" width="1" height="1"/>
		<rect x="35.2" y="70.3" class="st1" width="1" height="1"/>
		<rect x="33.2" y="72.3" class="st3" width="4" height="4"/>
		<rect x="33.2" y="72.3" class="st1" width="1" height="1"/>
		<rect x="35.2" y="74.3" class="st1" width="1" height="1"/>
		<rect x="33.2" y="76.3" class="st3" width="4" height="4"/>
		<rect x="33.2" y="76.3" class="st1" width="1" height="1"/>
		<rect x="35.2" y="78.3" class="st1" width="1" height="1"/>
		<rect x="33.2" y="80.3" class="st3" width="4" height="4"/>
		<rect x="33.2" y="80.3" class="st1" width="1" height="1"/>
		<rect x="35.2" y="82.3" class="st1" width="1" height="1"/>
		<rect x="33.2" y="84.3" class="st3" width="4" height="4"/>
		<rect x="33.2" y="84.3" class="st1" width="1" height="1"/>
		<rect x="35.2" y="86.3" class="st1" width="1" height="1"/>
		<rect x="33.2" y="88.3" class="st3" width="4" height="4"/>
		<rect x="33.2" y="88.3" class="st1" width="1" height="1"/>
		<rect x="35.2" y="90.3" class="st1" width="1" height="1"/>
		<rect x="33.2" y="92.3" class="st3" width="4" height="4"/>
		<rect x="33.2" y="92.3" class="st1" width="1" height="1"/>
		<rect x="35.2" y="94.3" class="st1" width="1" height="1"/>
		<rect x="33.2" y="96.3" class="st3" width="4" height="4"/>
		<rect x="33.2" y="96.3" class="st1" width="1" height="1"/>
		<rect x="35.2" y="98.3" class="st1" width="1" height="1"/>
		<rect x="29.2" y="48.3" class="st3" width="4" height="4"/>
		<rect x="29.2" y="48.3" class="st1" width="1" height="1"/>
		<rect x="31.2" y="50.3" class="st1" width="1" height="1"/>
		<rect x="29.2" y="52.3" class="st3" width="4" height="4"/>
		<rect x="29.2" y="52.3" class="st1" width="1" height="1"/>
		<rect x="31.2" y="54.3" class="st1" width="1" height="1"/>
		<rect x="29.2" y="56.3" class="st3" width="4" height="4"/>
		<rect x="29.2" y="56.3" class="st1" width="1" height="1"/>
		<rect x="31.2" y="58.3" class="st1" width="1" height="1"/>
		<rect x="29.2" y="60.3" class="st3" width="4" height="4"/>
		<rect x="29.2" y="60.3" class="st1" width="1" height="1"/>
		<rect x="31.2" y="62.3" class="st1" width="1" height="1"/>
		<rect x="29.2" y="64.3" class="st3" width="4" height="4"/>
		<rect x="29.2" y="64.3" class="st1" width="1" height="1"/>
		<rect x="31.2" y="66.3" class="st1" width="1" height="1"/>
		<rect x="29.2" y="68.3" class="st3" width="4" height="4"/>
		<rect x="29.2" y="68.3" class="st1" width="1" height="1"/>
		<rect x="31.2" y="70.3" class="st1" width="1" height="1"/>
		<rect x="29.2" y="72.3" class="st3" width="4" height="4"/>
		<rect x="29.2" y="72.3" class="st1" width="1" height="1"/>
		<rect x="31.2" y="74.3" class="st1" width="1" height="1"/>
		<rect x="29.2" y="76.3" class="st3" width="4" height="4"/>
		<rect x="29.2" y="76.3" class="st1" width="1" height="1"/>
		<rect x="31.2" y="78.3" class="st1" width="1" height="1"/>
		<rect x="29.2" y="80.3" class="st3" width="4" height="4"/>
		<rect x="29.2" y="80.3" class="st1" width="1" height="1"/>
		<rect x="31.2" y="82.3" class="st1" width="1" height="1"/>
		<rect x="29.2" y="84.3" class="st3" width="4" height="4"/>
		<rect x="29.2" y="84.3" class="st1" width="1" height="1"/>
		<rect x="31.2" y="86.3" class="st1" width="1" height="1"/>
		<rect x="29.2" y="88.3" class="st3" width="4" height="4"/>
		<rect x="29.2" y="88.3" class="st1" width="1" height="1"/>
		<rect x="31.2" y="90.3" class="st1" width="1" height="1"/>
		<rect x="29.2" y="92.3" class="st3" width="4" height="4"/>
		<rect x="29.2" y="92.3" class="st1" width="1" height="1"/>
		<rect x="31.2" y="94.3" class="st1" width="1" height="1"/>
		<rect x="29.2" y="96.3" class="st3" width="4" height="4"/>
		<rect x="29.2" y="96.3" class="st1" width="1" height="1"/>
		<rect x="31.2" y="98.3" class="st1" width="1" height="1"/>
		<rect x="25.2" y="48.3" class="st3" width="4" height="4"/>
		<rect x="25.2" y="48.3" class="st1" width="1" height="1"/>
		<rect x="27.2" y="50.3" class="st1" width="1" height="1"/>
		<rect x="25.2" y="52.3" class="st3" width="4" height="4"/>
		<rect x="25.2" y="52.3" class="st1" width="1" height="1"/>
		<rect x="27.2" y="54.3" class="st1" width="1" height="1"/>
		<rect x="25.2" y="56.3" class="st3" width="4" height="4"/>
		<rect x="25.2" y="56.3" class="st1" width="1" height="1"/>
		<rect x="27.2" y="58.3" class="st1" width="1" height="1"/>
		<rect x="25.2" y="60.3" class="st3" width="4" height="4"/>
		<rect x="25.2" y="60.3" class="st1" width="1" height="1"/>
		<rect x="27.2" y="62.3" class="st1" width="1" height="1"/>
		<rect x="25.2" y="64.3" class="st3" width="4" height="4"/>
		<rect x="25.2" y="64.3" class="st1" width="1" height="1"/>
		<rect x="27.2" y="66.3" class="st1" width="1" height="1"/>
		<rect x="25.2" y="68.3" class="st3" width="4" height="4"/>
		<rect x="25.2" y="68.3" class="st1" width="1" height="1"/>
		<rect x="27.2" y="70.3" class="st1" width="1" height="1"/>
		<rect x="25.2" y="72.3" class="st3" width="4" height="4"/>
		<rect x="25.2" y="72.3" class="st1" width="1" height="1"/>
		<rect x="27.2" y="74.3" class="st1" width="1" height="1"/>
		<rect x="25.2" y="76.3" class="st3" width="4" height="4"/>
		<rect x="25.2" y="76.3" class="st1" width="1" height="1"/>
		<rect x="27.2" y="78.3" class="st1" width="1" height="1"/>
		<rect x="25.2" y="80.3" class="st3" width="4" height="4"/>
		<rect x="25.2" y="80.3" class="st1" width="1" height="1"/>
		<rect x="27.2" y="82.3" class="st1" width="1" height="1"/>
		<rect x="25.2" y="84.3" class="st3" width="4" height="4"/>
		<rect x="25.2" y="84.3" class="st1" width="1" height="1"/>
		<rect x="27.2" y="86.3" class="st1" width="1" height="1"/>
		<rect x="25.2" y="88.3" class="st3" width="4" height="4"/>
		<rect x="25.2" y="88.3" class="st1" width="1" height="1"/>
		<rect x="27.2" y="90.3" class="st1" width="1" height="1"/>
		<rect x="25.2" y="92.3" class="st3" width="4" height="4"/>
		<rect x="25.2" y="92.3" class="st1" width="1" height="1"/>
		<rect x="27.2" y="94.3" class="st1" width="1" height="1"/>
		<rect x="25.2" y="96.3" class="st3" width="4" height="4"/>
		<rect x="25.2" y="96.3" class="st1" width="1" height="1"/>
		<rect x="27.2" y="98.3" class="st1" width="1" height="1"/>
		<rect x="21.2" y="48.3" class="st3" width="4" height="4"/>
		<rect x="21.2" y="48.3" class="st1" width="1" height="1"/>
		<rect x="23.2" y="50.3" class="st1" width="1" height="1"/>
		<rect x="21.2" y="52.3" class="st3" width="4" height="4"/>
		<rect x="21.2" y="52.3" class="st1" width="1" height="1"/>
		<rect x="23.2" y="54.3" class="st1" width="1" height="1"/>
		<rect x="21.2" y="56.3" class="st3" width="4" height="4"/>
		<rect x="21.2" y="56.3" class="st1" width="1" height="1"/>
		<rect x="23.2" y="58.3" class="st1" width="1" height="1"/>
		<rect x="21.2" y="60.3" class="st3" width="4" height="4"/>
		<rect x="21.2" y="60.3" class="st1" width="1" height="1"/>
		<rect x="23.2" y="62.3" class="st1" width="1" height="1"/>
		<rect x="21.2" y="64.3" class="st3" width="4" height="4"/>
		<rect x="21.2" y="64.3" class="st1" width="1" height="1"/>
		<rect x="23.2" y="66.3" class="st1" width="1" height="1"/>
		<rect x="21.2" y="68.3" class="st3" width="4" height="4"/>
		<rect x="21.2" y="68.3" class="st1" width="1" height="1"/>
		<rect x="23.2" y="70.3" class="st1" width="1" height="1"/>
		<rect x="21.2" y="72.3" class="st3" width="4" height="4"/>
		<rect x="21.2" y="72.3" class="st1" width="1" height="1"/>
		<rect x="23.2" y="74.3" class="st1" width="1" height="1"/>
		<rect x="21.2" y="76.3" class="st3" width="4" height="4"/>
		<rect x="21.2" y="76.3" class="st1" width="1" height="1"/>
		<rect x="23.2" y="78.3" class="st1" width="1" height="1"/>
		<rect x="21.2" y="80.3" class="st3" width="4" height="4"/>
		<rect x="21.2" y="80.3" class="st1" width="1" height="1"/>
		<rect x="23.2" y="82.3" class="st1" width="1" height="1"/>
		<rect x="21.2" y="84.3" class="st3" width="4" height="4"/>
		<rect x="21.2" y="84.3" class="st1" width="1" height="1"/>
		<rect x="23.2" y="86.3" class="st1" width="1" height="1"/>
		<rect x="21.2" y="88.3" class="st3" width="4" height="4"/>
		<rect x="21.2" y="88.3" class="st1" width="1" height="1"/>
		<rect x="23.2" y="90.3" class="st1" width="1" height="1"/>
		<rect x="21.2" y="92.3" class="st3" width="4" height="4"/>
		<rect x="21.2" y="92.3" class="st1" width="1" height="1"/>
		<rect x="23.2" y="94.3" class="st1" width="1" height="1"/>
		<rect x="21.2" y="96.3" class="st3" width="4" height="4"/>
		<rect x="21.2" y="96.3" class="st1" width="1" height="1"/>
		<rect x="23.2" y="98.3" class="st1" width="1" height="1"/>
		<rect x="17.2" y="48.3" class="st3" width="4" height="4"/>
		<rect x="17.2" y="48.3" class="st1" width="1" height="1"/>
		<rect x="19.2" y="50.3" class="st1" width="1" height="1"/>
		<rect x="17.2" y="52.3" class="st3" width="4" height="4"/>
		<rect x="17.2" y="52.3" class="st1" width="1" height="1"/>
		<rect x="19.2" y="54.3" class="st1" width="1" height="1"/>
		<rect x="17.2" y="56.3" class="st3" width="4" height="4"/>
		<rect x="17.2" y="56.3" class="st1" width="1" height="1"/>
		<rect x="19.2" y="58.3" class="st1" width="1" height="1"/>
		<rect x="17.2" y="60.3" class="st3" width="4" height="4"/>
		<rect x="17.2" y="60.3" class="st1" width="1" height="1"/>
		<rect x="19.2" y="62.3" class="st1" width="1" height="1"/>
		<rect x="17.2" y="64.3" class="st3" width="4" height="4"/>
		<rect x="17.2" y="64.3" class="st1" width="1" height="1"/>
		<rect x="19.2" y="66.3" class="st1" width="1" height="1"/>
		<rect x="17.2" y="68.3" class="st3" width="4" height="4"/>
		<rect x="17.2" y="68.3" class="st1" width="1" height="1"/>
		<rect x="19.2" y="70.3" class="st1" width="1" height="1"/>
		<rect x="17.2" y="72.3" class="st3" width="4" height="4"/>
		<rect x="17.2" y="72.3" class="st1" width="1" height="1"/>
		<rect x="19.2" y="74.3" class="st1" width="1" height="1"/>
		<rect x="17.2" y="76.3" class="st3" width="4" height="4"/>
		<rect x="17.2" y="76.3" class="st1" width="1" height="1"/>
		<rect x="19.2" y="78.3" class="st1" width="1" height="1"/>
		<rect x="17.2" y="80.3" class="st3" width="4" height="4"/>
		<rect x="17.2" y="80.3" class="st1" width="1" height="1"/>
		<rect x="19.2" y="82.3" class="st1" width="1" height="1"/>
		<rect x="17.2" y="84.3" class="st3" width="4" height="4"/>
		<rect x="17.2" y="84.3" class="st1" width="1" height="1"/>
		<rect x="19.2" y="86.3" class="st1" width="1" height="1"/>
		<rect x="17.2" y="88.3" class="st3" width="4" height="4"/>
		<rect x="17.2" y="88.3" class="st1" width="1" height="1"/>
		<rect x="19.2" y="90.3" class="st1" width="1" height="1"/>
		<rect x="17.2" y="92.3" class="st3" width="4" height="4"/>
		<rect x="17.2" y="92.3" class="st1" width="1" height="1"/>
		<rect x="19.2" y="94.3" class="st1" width="1" height="1"/>
		<rect x="17.2" y="96.3" class="st3" width="4" height="4"/>
		<rect x="17.2" y="96.3" class="st1" width="1" height="1"/>
		<rect x="19.2" y="98.3" class="st1" width="1" height="1"/>
		<rect x="13.2" y="48.3" class="st3" width="4" height="4"/>
		<rect x="13.2" y="48.3" class="st1" width="1" height="1"/>
		<rect x="15.2" y="50.3" class="st1" width="1" height="1"/>
		<rect x="13.2" y="52.3" class="st3" width="4" height="4"/>
		<rect x="13.2" y="52.3" class="st1" width="1" height="1"/>
		<rect x="15.2" y="54.3" class="st1" width="1" height="1"/>
		<rect x="13.2" y="56.3" class="st3" width="4" height="4"/>
		<rect x="13.2" y="56.3" class="st1" width="1" height="1"/>
		<rect x="15.2" y="58.3" class="st1" width="1" height="1"/>
		<rect x="13.2" y="60.3" class="st3" width="4" height="4"/>
		<rect x="13.2" y="60.3" class="st1" width="1" height="1"/>
		<rect x="15.2" y="62.3" class="st1" width="1" height="1"/>
		<rect x="13.2" y="64.3" class="st3" width="4" height="4"/>
		<rect x="13.2" y="64.3" class="st1" width="1" height="1"/>
		<rect x="15.2" y="66.3" class="st1" width="1" height="1"/>
		<rect x="13.2" y="68.3" class="st3" width="4" height="4"/>
		<rect x="13.2" y="68.3" class="st1" width="1" height="1"/>
		<rect x="15.2" y="70.3" class="st1" width="1" height="1"/>
		<rect x="13.2" y="72.3" class="st3" width="4" height="4"/>
		<rect x="13.2" y="72.3" class="st1" width="1" height="1"/>
		<rect x="15.2" y="74.3" class="st1" width="1" height="1"/>
		<rect x="13.2" y="76.3" class="st3" width="4" height="4"/>
		<rect x="13.2" y="76.3" class="st1" width="1" height="1"/>
		<rect x="15.2" y="78.3" class="st1" width="1" height="1"/>
		<rect x="13.2" y="80.3" class="st3" width="4" height="4"/>
		<rect x="13.2" y="80.3" class="st1" width="1" height="1"/>
		<rect x="15.2" y="82.3" class="st1" width="1" height="1"/>
		<rect x="13.2" y="84.3" class="st3" width="4" height="4"/>
		<rect x="13.2" y="84.3" class="st1" width="1" height="1"/>
		<rect x="15.2" y="86.3" class="st1" width="1" height="1"/>
		<rect x="13.2" y="88.3" class="st3" width="4" height="4"/>
		<rect x="13.2" y="88.3" class="st1" width="1" height="1"/>
		<rect x="15.2" y="90.3" class="st1" width="1" height="1"/>
		<rect x="13.2" y="92.3" class="st3" width="4" height="4"/>
		<rect x="13.2" y="92.3" class="st1" width="1" height="1"/>
		<rect x="15.2" y="94.3" class="st1" width="1" height="1"/>
		<rect x="13.2" y="96.3" class="st3" width="4" height="4"/>
		<rect x="13.2" y="96.3" class="st1" width="1" height="1"/>
		<rect x="15.2" y="98.3" class="st1" width="1" height="1"/>
		<rect x="9.2" y="48.3" class="st3" width="4" height="4"/>
		<rect x="9.2" y="48.3" class="st1" width="1" height="1"/>
		<rect x="11.2" y="50.3" class="st1" width="1" height="1"/>
		<rect x="9.2" y="52.3" class="st3" width="4" height="4"/>
		<rect x="9.2" y="52.3" class="st1" width="1" height="1"/>
		<rect x="11.2" y="54.3" class="st1" width="1" height="1"/>
		<rect x="9.2" y="56.3" class="st3" width="4" height="4"/>
		<rect x="9.2" y="56.3" class="st1" width="1" height="1"/>
		<rect x="11.2" y="58.3" class="st1" width="1" height="1"/>
		<rect x="9.2" y="60.3" class="st3" width="4" height="4"/>
		<rect x="9.2" y="60.3" class="st1" width="1" height="1"/>
		<rect x="11.2" y="62.3" class="st1" width="1" height="1"/>
		<rect x="9.2" y="64.3" class="st3" width="4" height="4"/>
		<rect x="9.2" y="64.3" class="st1" width="1" height="1"/>
		<rect x="11.2" y="66.3" class="st1" width="1" height="1"/>
		<rect x="9.2" y="68.3" class="st3" width="4" height="4"/>
		<rect x="9.2" y="68.3" class="st1" width="1" height="1"/>
		<rect x="11.2" y="70.3" class="st1" width="1" height="1"/>
		<rect x="9.2" y="72.3" class="st3" width="4" height="4"/>
		<rect x="9.2" y="72.3" class="st1" width="1" height="1"/>
		<rect x="11.2" y="74.3" class="st1" width="1" height="1"/>
		<rect x="9.2" y="76.3" class="st3" width="4" height="4"/>
		<rect x="9.2" y="76.3" class="st1" width="1" height="1"/>
		<rect x="11.2" y="78.3" class="st1" width="1" height="1"/>
		<rect x="9.2" y="80.3" class="st3" width="4" height="4"/>
		<rect x="9.2" y="80.3" class="st1" width="1" height="1"/>
		<rect x="11.2" y="82.3" class="st1" width="1" height="1"/>
		<rect x="9.2" y="84.3" class="st3" width="4" height="4"/>
		<rect x="9.2" y="84.3" class="st1" width="1" height="1"/>
		<rect x="11.2" y="86.3" class="st1" width="1" height="1"/>
		<rect x="9.2" y="88.3" class="st3" width="4" height="4"/>
		<rect x="9.2" y="88.3" class="st1" width="1" height="1"/>
		<rect x="11.2" y="90.3" class="st1" width="1" height="1"/>
		<rect x="9.2" y="92.3" class="st3" width="4" height="4"/>
		<rect x="9.2" y="92.3" class="st1" width="1" height="1"/>
		<rect x="11.2" y="94.3" class="st1" width="1" height="1"/>
		<rect x="9.2" y="96.3" class="st3" width="4" height="4"/>
		<rect x="9.2" y="96.3" class="st1" width="1" height="1"/>
		<rect x="11.2" y="98.3" class="st1" width="1" height="1"/>
		<rect x="5.2" y="48.3" class="st3" width="4" height="4"/>
		<rect x="5.2" y="48.3" class="st1" width="1" height="1"/>
		<rect x="7.2" y="50.3" class="st1" width="1" height="1"/>
		<rect x="5.2" y="52.3" class="st3" width="4" height="4"/>
		<rect x="5.2" y="52.3" class="st1" width="1" height="1"/>
		<rect x="7.2" y="54.3" class="st1" width="1" height="1"/>
		<rect x="5.2" y="56.3" class="st3" width="4" height="4"/>
		<rect x="5.2" y="56.3" class="st1" width="1" height="1"/>
		<rect x="7.2" y="58.3" class="st1" width="1" height="1"/>
		<rect x="5.2" y="60.3" class="st3" width="4" height="4"/>
		<rect x="5.2" y="60.3" class="st1" width="1" height="1"/>
		<rect x="7.2" y="62.3" class="st1" width="1" height="1"/>
		<rect x="5.2" y="64.3" class="st3" width="4" height="4"/>
		<rect x="5.2" y="64.3" class="st1" width="1" height="1"/>
		<rect x="7.2" y="66.3" class="st1" width="1" height="1"/>
		<rect x="5.2" y="68.3" class="st3" width="4" height="4"/>
		<rect x="5.2" y="68.3" class="st1" width="1" height="1"/>
		<rect x="7.2" y="70.3" class="st1" width="1" height="1"/>
		<rect x="5.2" y="72.3" class="st3" width="4" height="4"/>
		<rect x="5.2" y="72.3" class="st1" width="1" height="1"/>
		<rect x="7.2" y="74.3" class="st1" width="1" height="1"/>
		<rect x="5.2" y="76.3" class="st3" width="4" height="4"/>
		<rect x="5.2" y="76.3" class="st1" width="1" height="1"/>
		<rect x="7.2" y="78.3" class="st1" width="1" height="1"/>
		<rect x="5.2" y="80.3" class="st3" width="4" height="4"/>
		<rect x="5.2" y="80.3" class="st1" width="1" height="1"/>
		<rect x="7.2" y="82.3" class="st1" width="1" height="1"/>
		<rect x="5.2" y="84.3" class="st3" width="4" height="4"/>
		<rect x="5.2" y="84.3" class="st1" width="1" height="1"/>
		<rect x="7.2" y="86.3" class="st1" width="1" height="1"/>
		<rect x="5.2" y="88.3" class="st3" width="4" height="4"/>
		<rect x="5.2" y="88.3" class="st1" width="1" height="1"/>
		<rect x="7.2" y="90.3" class="st1" width="1" height="1"/>
		<rect x="5.2" y="92.3" class="st3" width="4" height="4"/>
		<rect x="5.2" y="92.3" class="st1" width="1" height="1"/>
		<rect x="7.2" y="94.3" class="st1" width="1" height="1"/>
		<rect x="5.2" y="96.3" class="st3" width="4" height="4"/>
		<rect x="5.2" y="96.3" class="st1" width="1" height="1"/>
		<rect x="7.2" y="98.3" class="st1" width="1" height="1"/>
	</g>
</g>
<circle class="st4" cx="30.3" cy="74.6" r="10.4"/>
<path class="st1" d="M30.3,85.5c-6,0-10.9-4.9-10.9-10.9s4.9-10.9,10.9-10.9s10.9,4.9,10.9,10.9C41.2,80.6,36.4,85.5,30.3,85.5z
	 M30.3,64.7c-5.5,0-9.9,4.4-9.9,9.9s4.4,9.9,9.9,9.9s9.9-4.4,9.9-9.9C40.2,69.1,35.8,64.7,30.3,64.7z"/>
<path class="st1" d="M29.1,75.7h-3.5v-2h3.5v-3.5h2v3.5h3.5v2h-3.4v3.5h-2L29.1,75.7z"/>
<rect x="40.3" y="12.4" class="st1" width="80.5" height="21.9"/>
<path class="st1" d="M121.3,34.8H39.8V12h81.5V34.8z M40.8,33.8h79.5V13H40.8V33.8z"/>
<rect x="44.2" y="8.5" class="st5" width="80.5" height="21.9"/>
<path class="st1" d="M125.2,30.9H43.7V8h81.5L125.2,30.9z M44.7,29.9h79.5V9H44.7L44.7,29.9z"/>
<path class="st1" d="M117,23.3l-5.6-4.8c-1.3-1.1-3.2-1.1-4.5,0l-3,2.6c-1.7,1.4-4.1,1.4-5.8,0l-3-2.6c-1.3-1.1-3.2-1.1-4.5,0
	l-3,2.6c-1.7,1.4-4.1,1.4-5.8,0l-3-2.6c-1.3-1.1-3.2-1.1-4.5,0l-3,2.6c-1.7,1.4-4.1,1.4-5.8,0l-3-2.6c-1.3-1.1-3.2-1.1-4.5,0
	L52,23.3l-0.6-0.8l5.6-4.8c1.7-1.4,4.1-1.4,5.8,0l3,2.6c1.3,1.1,3.2,1.1,4.5,0l3-2.6c1.7-1.4,4.1-1.4,5.8,0l3,2.6
	c1.3,1.1,3.2,1.1,4.5,0l3-2.6c1.7-1.4,4.1-1.4,5.8,0l3,2.6c1.3,1.1,3.2,1.1,4.5,0l3-2.6c1.7-1.4,4.1-1.4,5.8,0l5.6,4.8L117,23.3z"/>
<path class="st1" d="M115.2,52h34.8c5.2,0,9.4,4.2,9.4,9.4l0,0c0,5.2-4.2,9.4-9.4,9.4h-34.8c-5.2,0-9.4-4.2-9.4-9.4l0,0
	C105.8,56.2,110.1,52,115.2,52z"/>
<path class="st1" d="M150.1,71.3h-34.8c-5.5-0.2-9.8-4.7-9.6-10.2c0.2-5.2,4.4-9.4,9.6-9.6h34.8c5.5-0.2,10,4.1,10.2,9.6
	s-4.1,10-9.6,10.2C150.5,71.3,150.3,71.3,150.1,71.3z M115.2,52.5c-4.9,0.2-8.8,4.3-8.6,9.2c0.2,4.7,3.9,8.4,8.6,8.6h34.8
	c4.9,0.2,9-3.7,9.2-8.6s-3.7-9-8.6-9.2c-0.2,0-0.4,0-0.6,0H115.2z"/>
<path class="st5" d="M124.9,61.4c0.1,4.9-3.7,8.9-8.6,9.1c-4.9,0.1-8.9-3.7-9.1-8.6c-0.1-4.9,3.7-8.9,8.6-9.1c0.1,0,0.2,0,0.2,0
	C120.9,52.7,124.8,56.5,124.9,61.4z"/>
<path class="st1" d="M116.1,70.5c-5-0.1-9-4.3-8.9-9.3s4.3-9,9.3-8.9c4.9,0.1,8.9,4.2,8.9,9.1C125.3,66.5,121.1,70.5,116.1,70.5z
	 M116.1,53.2c-4.5,0.1-8,3.9-7.9,8.3s3.9,8,8.3,7.9c4.4-0.1,7.9-3.7,7.9-8.1C124.3,56.8,120.6,53.2,116.1,53.2z"/>
<path class="st1" d="M9.9,115.2h34.8c5.2,0,9.4,4.2,9.4,9.4l0,0c0,5.2-4.2,9.4-9.4,9.4H9.9c-5.2,0-9.4-4.2-9.4-9.4l0,0
	C0.5,119.4,4.7,115.2,9.9,115.2z"/>
<path class="st1" d="M44.8,134.5H9.9c-5.5,0.2-10-4.1-10.2-9.6s4.1-10,9.6-10.2c0.2,0,0.4,0,0.6,0h34.8c5.5,0.2,9.8,4.7,9.6,10.2
	C54.2,130.1,50,134.3,44.8,134.5z M9.9,115.7c-4.9-0.2-9,3.7-9.2,8.6s3.7,9,8.6,9.2c0.2,0,0.4,0,0.6,0h34.8c4.9-0.2,8.8-4.3,8.6-9.2
	c-0.2-4.7-3.9-8.4-8.6-8.6H9.9z"/>
<path class="st5" d="M35.1,124.6c-0.1-4.9,3.7-8.9,8.6-9.1c4.9-0.1,8.9,3.7,9.1,8.6c0.1,4.9-3.7,8.9-8.6,9.1c-0.1,0-0.1,0-0.2,0
	C39.2,133.3,35.2,129.4,35.1,124.6C35.1,124.6,35.1,124.6,35.1,124.6z"/>
<path class="st1" d="M44,133.7c-5-0.1-9-4.3-8.9-9.3s4.3-9,9.3-8.9c4.9,0.1,8.9,4.2,8.9,9.1C53.3,129.7,49.1,133.7,44,133.7z
	 M44,116.5c-4.5,0.1-8,3.9-7.9,8.3s3.9,8,8.3,7.9c4.4-0.1,7.9-3.7,7.9-8.1C52.3,120,48.5,116.4,44,116.5z"/>
<rect x="69.6" y="45.3" class="st4" width="20.9" height="107.2"/>
<path class="st1" d="M91,153H69.1V44.8H91V153z M70.1,152H90V45.8H70.1V152z"/>
<rect x="83.2" y="67.3" class="st1" width="6.5" height="1"/>
<rect x="83.2" y="82.9" class="st1" width="6.5" height="1"/>
<rect x="83.2" y="75.1" class="st1" width="6.5" height="1"/>
<rect x="83.2" y="90.8" class="st1" width="6.5" height="1"/>
<path class="st1" d="M89.8,99.1H79.5v-1h10.4V99.1z M89.8,60.2H79.5v-1h10.4V60.2z"/>
<rect x="83.2" y="114.2" class="st1" width="6.5" height="1"/>
<rect x="83.2" y="106.4" class="st1" width="6.5" height="1"/>
<rect x="83.2" y="122.1" class="st1" width="6.5" height="1"/>
<rect x="83.2" y="129.9" class="st1" width="6.5" height="1"/>
<rect x="79.5" y="137.3" class="st1" width="10.4" height="1"/>
</svg>
