<?xml version="1.0" encoding="UTF-8"?><svg id="uuid-2fa3415a-4d4a-49f8-9b46-7e4be2606eaf" xmlns="http://www.w3.org/2000/svg" viewBox="0 0 24 24"><g id="uuid-13b73aca-9a1d-4f22-b1ed-68b350b16d1d"><g id="uuid-19880407-dcea-49e8-920a-1705c279a892"><g><path d="M5.25,18c-2.07,0-3.75-1.68-3.75-3.75s1.68-3.75,3.75-3.75,3.75,1.68,3.75,3.75-1.68,3.75-3.75,3.75Zm0-6c-1.24,0-2.25,1.01-2.25,2.25s1.01,2.25,2.25,2.25,2.25-1.01,2.25-2.25-1.01-2.25-2.25-2.25Z" fill="#3a11e5"/><path d="M.75,24c-.41,0-.75-.34-.75-.75,0-2.9,2.36-5.25,5.25-5.25s5.25,2.35,5.25,5.25c0,.41-.34,.75-.75,.75H.75Zm8.17-1.5c-.35-1.71-1.89-3-3.67-3s-3.32,1.29-3.67,3h7.34Z" fill="#3a11e5"/><path d="M18.75,18c-1.34,0-2.59-.72-3.26-1.88-.33-.57-.5-1.21-.5-1.87,0-.2,.08-.39,.22-.53s.33-.22,.53-.22c.41,0,.75,.34,.75,.75s.1,.78,.3,1.12c.4,.69,1.15,1.13,1.95,1.13,.39,0,.78-.1,1.12-.3,1.08-.62,1.45-2,.83-3.07-.21-.36-.08-.82,.28-1.02,.11-.06,.24-.1,.37-.1,.27,0,.52,.14,.65,.38,1.03,1.79,.41,4.09-1.38,5.12-.57,.33-1.21,.5-1.86,.5h0Z" fill="#3a11e5"/><path d="M14.25,24c-.41,0-.75-.34-.75-.75,0-2.9,2.35-5.25,5.25-5.25s5.25,2.35,5.25,5.25c0,.41-.34,.75-.75,.75H14.25Zm8.17-1.5c-.35-1.71-1.89-3-3.67-3s-3.32,1.29-3.67,3h7.34Z" fill="#3a11e5"/><path d="M12,15c-.1,0-.2-.02-.29-.06-.28-.12-.46-.39-.46-.69v-3.75H6.75c-.41,0-.75-.34-.75-.75V.75c0-.41,.34-.75,.75-.75h15.75c.41,0,.75,.34,.75,.75V9.75c0,.41-.34,.75-.75,.75h-5.69l-4.28,4.28c-.14,.14-.33,.22-.53,.22Zm0-6c.41,0,.75,.34,.75,.75v2.69l3.22-3.22c.14-.14,.33-.22,.53-.22h5.25V1.5H7.5v7.5h4.5Z" fill="#3a11e5"/><path d="M17.6,8.25c-.18,0-.35-.06-.48-.18-.32-.27-.35-.74-.09-1.06l1.49-1.77-1.49-1.77c-.27-.32-.23-.79,.09-1.06,.14-.11,.31-.18,.48-.18,.22,0,.43,.1,.57,.27l1.9,2.25c.24,.28,.24,.69,0,.97l-1.9,2.25c-.14,.17-.35,.27-.57,.27h0Z" fill="#3a11e5"/><path d="M11.65,8.25c-.22,0-.43-.1-.57-.27l-1.9-2.25c-.24-.28-.24-.69,0-.97l1.9-2.25c.14-.17,.35-.27,.57-.27,.18,0,.35,.06,.48,.18,.15,.13,.25,.31,.26,.51,.02,.2-.05,.39-.18,.55l-1.49,1.77,1.49,1.77c.13,.15,.19,.35,.18,.55s-.11,.38-.26,.51c-.14,.11-.31,.18-.48,.18h0Z" fill="#3a11e5"/><path d="M14.25,8.25s-.08,0-.12-.01c-.2-.03-.37-.14-.49-.3s-.16-.36-.13-.56l.75-4.5c.06-.36,.37-.63,.74-.63,.04,0,.08,0,.13,.01,.2,.03,.37,.14,.49,.3,.12,.16,.16,.36,.13,.56l-.75,4.5c-.06,.36-.37,.63-.74,.63h0Z" fill="#3a11e5"/></g></g></g></svg>