<?xml version="1.0" encoding="UTF-8"?><svg id="uuid-2f10164a-12a8-467a-8aab-24d3140411b3" xmlns="http://www.w3.org/2000/svg" viewBox="0 0 23.97 23.99"><g id="uuid-aada3eda-d595-4a5e-9908-8cb053046324"><g><path d="M18.01,23.99c-.06,0-.11,0-.18-.02-.01,0-.04,0-.05,0-.04,0-.07-.02-.1-.04-.02,0-.03,0-.05-.02l-5.25-3c-.23-.13-.38-.38-.38-.65v-5.25c0-.06,0-.12,.02-.18,0-.01,.01-.03,.01-.05,.02-.05,.03-.09,.05-.13,0-.01,.02-.03,.02-.04,.03-.05,.07-.1,.1-.14l.02-.02s.07-.06,.11-.08l.02-.02,5.26-3.01c.11-.06,.24-.1,.37-.1s.26,.03,.37,.1l5.25,3s.02,.01,.03,.02c.04,.03,.08,.05,.11,.09h0s.07,.1,.11,.15c0,0,.02,.04,.03,.05,.02,.04,.04,.08,.05,.12,0,0,0,.04,0,.05,0,.06,.02,.12,.02,.18v5.25c0,.27-.15,.52-.38,.65l-5.25,3s-.03,.02-.05,.02c-.03,.02-.07,.03-.1,.04h-.05c-.06,.03-.12,.04-.18,.04h.05Zm.75-2.04l3.75-2.14v-3.52l-3.75,2.14v3.52Zm-1.5,0v-3.52l-3.75-2.14v3.52l3.75,2.14Zm.75-4.82l3.74-2.14-3.74-2.14-3.74,2.14,3.74,2.14Z" fill="#3a11e5"/><path d="M12.01,12.74c-.06,0-.12,0-.18-.02-.01,0-.04-.01-.05-.01-.04-.01-.07-.02-.11-.04-.01,0-.03-.01-.04-.02l-5.26-3c-.23-.13-.38-.38-.38-.65V3.75c0-.06,0-.12,.02-.18,0,0,.01-.04,.01-.05,.01-.04,.03-.08,.05-.12l.02-.04c.06-.1,.14-.18,.23-.24,.01,0,.02-.02,.03-.02L11.6,.1c.11-.06,.24-.1,.37-.1s.26,.03,.37,.1l5.25,3s.02,.01,.03,.02c.04,.03,.08,.05,.11,.09h.01s.07,.1,.11,.15c0,0,.02,.03,.02,.04,.02,.05,.04,.09,.05,.13v.05c.03,.06,.04,.12,.04,.18v5.25c0,.27-.15,.52-.38,.65l-5.25,3s-.03,.02-.05,.02c-.04,.02-.07,.03-.1,.04h-.04c-.06,.03-.12,.03-.18,.03h.05Zm.75-2.05l3.75-2.14v-3.52l-3.75,2.14v3.52Zm-1.5,0v-3.52l-3.75-2.14v3.52l3.75,2.14Zm.75-4.82l3.74-2.14-3.74-2.14-3.74,2.14,3.74,2.14Z" fill="#3a11e5"/><path d="M6.01,23.99c-.06,0-.11,0-.18-.02-.01,0-.03,0-.05,0-.04,0-.07-.02-.11-.04-.02,0-.04-.02-.05-.02L.38,20.9c-.23-.13-.38-.38-.38-.65v-5.25c0-.06,0-.12,.02-.18,0,0,0-.03,.01-.04,.02-.05,.03-.09,.05-.13,0,0,.02-.03,.02-.04,.03-.06,.07-.1,.11-.14h.02s.07-.07,.11-.1l.03-.02,5.26-3.01c.11-.07,.24-.1,.37-.1s.26,.03,.37,.1l3.75,2.14c.17,.1,.3,.26,.35,.45,.05,.19,.03,.4-.07,.57-.13,.23-.38,.38-.65,.38-.13,0-.26-.03-.37-.1l-3.38-1.93-3.74,2.14,3.74,2.14,2.63-1.5c.11-.06,.24-.1,.37-.1,.27,0,.52,.15,.65,.38,.2,.36,.08,.82-.28,1.02l-2.62,1.5v3.52l2.63-1.5c.11-.06,.24-.1,.37-.1,.27,0,.52,.15,.65,.38,.1,.17,.12,.38,.07,.57-.05,.19-.18,.35-.35,.45l-3.75,2.14s-.03,.02-.05,.02c-.03,.02-.07,.03-.1,.04h-.05c-.06,.03-.12,.04-.18,.04h.02Zm-.75-2.04v-3.52l-3.75-2.14v3.52l3.75,2.14Z" fill="#3a11e5"/></g></g></svg>