<?xml version="1.0" encoding="UTF-8"?><svg id="uuid-00b5145c-dfea-45b8-bcc2-68a0027644e0" xmlns="http://www.w3.org/2000/svg" viewBox="0 0 23.98 24.03"><g id="uuid-4a0124df-e970-4185-968f-32aa972cea8d"><g><path d="M11,13.53c-.44,0-.84-.17-1.15-.48l-4.89-4.9c-.62-.61-.63-1.63-.02-2.26l1.24-1.24c.22-.22,.51-.34,.82-.34h.14c.35,.04,.66,.23,.86,.52,.04,.05,.08,.11,.13,.16,.05,.06,.08,.08,.11,.11,.18,.16,.39,.24,.63,.24h.06c.25-.01,.49-.13,.65-.32,.35-.39,.31-.99-.08-1.34-.08-.08-.13-.12-.19-.16-.29-.2-.48-.51-.52-.86-.04-.35,.08-.7,.33-.96l1.23-1.23c.31-.3,.71-.47,1.13-.47s.84,.17,1.14,.48l.69,.69,.07-.07c.47-.46,1.09-.71,1.74-.71s1.26,.25,1.73,.7c.48,.46,.75,1.08,.76,1.74s-.24,1.29-.7,1.77l-.08,.08,.69,.7c.63,.62,.64,1.63,.02,2.27l-1.33,1.33c-.22,.22-.52,.34-.83,.34h0c-.09,0-.17,0-.25-.03-.39-.09-.7-.35-.85-.72-.05-.13-.13-.24-.22-.34-.05-.06-.08-.09-.11-.11-.17-.16-.4-.24-.63-.24h-.06c-.25,.01-.49,.13-.65,.32s-.25,.43-.24,.69c.02,.25,.13,.49,.32,.65l.04,.04c.1,.1,.21,.17,.34,.23,.36,.15,.63,.46,.72,.85,.09,.39-.03,.8-.31,1.08l-1.33,1.32c-.31,.3-.71,.46-1.13,.46h-.02ZM6.01,6.95s-.03,.1,.01,.14l4.9,4.9s.06,.04,.08,.04,.05,0,.07-.03l1.01-1c-.15-.1-.3-.21-.43-.35-.47-.42-.75-1.02-.79-1.66-.04-.65,.18-1.28,.61-1.77,.44-.49,1.03-.78,1.69-.82h.15c.6,0,1.17,.22,1.62,.62,.07,.06,.14,.13,.2,.2,.11,.11,.22,.25,.32,.4l1.01-1.01s.03-.11,0-.15l-1.39-1.39c-.19-.19-.26-.47-.19-.73s.28-.46,.54-.53c.16-.04,.3-.12,.42-.24,.18-.18,.27-.43,.27-.69s-.11-.51-.3-.69c-.19-.18-.43-.28-.68-.28s-.5,.1-.68,.28c-.11,.11-.19,.25-.23,.41-.07,.26-.27,.47-.53,.54-.06,.02-.13,.03-.2,.03-.2,0-.39-.08-.53-.22l-1.39-1.39s-.06-.03-.08-.03-.05,0-.07,.03l-.97,.97s.06,.05,.09,.08c.45,.4,.75,1.01,.78,1.66,.04,.65-.18,1.28-.61,1.77-.44,.49-1.03,.78-1.69,.82h-.15c-.6,0-1.18-.22-1.63-.62-.07-.06-.14-.13-.2-.2l-.05-.05-.97,.97h-.01Z" fill="#3a11e5"/><path d="M8.25,24.02c-.41,0-.75-.34-.75-.75v-3.14c0-.74-.22-1.47-.63-2.08l-1.14-1.71c-.11-.18-.25-.28-.42-.33-.05-.01-.11-.02-.16-.02-.12,0-.23,.03-.33,.09l-.03,.02c-.26,.17-.35,.52-.22,.81l1.33,2.22c.1,.17,.13,.37,.08,.57s-.17,.36-.34,.46c-.12,.07-.25,.11-.38,.11-.26,0-.51-.14-.64-.36l-1.35-2.25s-.02-.03-.03-.05c-.16-.31-.24-.66-.23-1.02v-3.82c0-.41-.34-.75-.75-.75s-.75,.34-.75,.75v5.17c0,.85,.29,1.68,.82,2.34l2.01,2.52c.12,.16,.18,.35,.16,.55s-.12,.38-.28,.5c-.13,.11-.3,.16-.47,.16-.23,0-.44-.1-.59-.28l-2.01-2.52c-.74-.93-1.15-2.09-1.15-3.28v-5.17c0-1.24,1.01-2.25,2.25-2.25s2.25,1.01,2.25,2.25v1.82c.21-.07,.43-.1,.65-.1,.18,0,.35,.02,.53,.06,.56,.14,1.03,.49,1.32,.98l1.12,1.68c.58,.87,.88,1.88,.88,2.92v3.14c0,.41-.34,.75-.75,.75h0Z" fill="#3a11e5"/><path d="M20.25,24.02c-.17,0-.34-.06-.47-.16-.32-.26-.38-.73-.12-1.05l2.01-2.52c.53-.66,.82-1.49,.82-2.34v-5.17c0-.41-.34-.75-.75-.75s-.75,.34-.75,.75v3.79c0,.36-.06,.73-.23,1.05,0,.01,0,.03-.02,.04l-1.35,2.26c-.14,.23-.38,.36-.64,.36-.14,0-.27-.04-.39-.11-.17-.1-.29-.27-.34-.46s-.02-.4,.08-.57l1.33-2.22c.13-.29,.04-.64-.23-.81l-.03-.02c-.09-.06-.21-.09-.33-.09-.05,0-.11,0-.16,.02-.17,.04-.31,.15-.4,.3l-1.16,1.74c-.41,.62-.63,1.34-.63,2.08v3.14c0,.41-.34,.75-.75,.75s-.75-.34-.75-.75v-3.14c0-1.04,.31-2.05,.88-2.92l1.14-1.71c.37-.62,1.07-1.01,1.82-1.01,.22,0,.44,.03,.65,.1v-1.82c0-1.24,1.01-2.25,2.25-2.25s2.25,1.01,2.25,2.25v5.17c0,1.19-.41,2.35-1.15,3.28l-2.01,2.52c-.14,.18-.36,.28-.59,.28h.02Z" fill="#3a11e5"/></g></g></svg>